<svg width="16" height="17" viewBox="0 0 16 17" fill="none" xmlns="http://www.w3.org/2000/svg">
<path d="M15.1133 0.761353H0.886667C0.652047 0.763097 0.427532 0.857073 0.261627 1.02298C0.0957209 1.18888 0.00174445 1.4134 0 1.64802V15.8747C0.00174445 16.1093 0.0957209 16.3338 0.261627 16.4997C0.427532 16.6656 0.652047 16.7596 0.886667 16.7614H8.54667V10.5747H6.46667V8.15469H8.54667V6.37469C8.54667 4.30802 9.80667 3.18135 11.66 3.18135C12.28 3.18135 12.9 3.18135 13.52 3.27469V5.42802H12.2467C11.24 5.42802 11.0467 5.90802 11.0467 6.60802V8.14802H13.4467L13.1333 10.568H11.0467V16.7614H15.1133C15.348 16.7596 15.5725 16.6656 15.7384 16.4997C15.9043 16.3338 15.9983 16.1093 16 15.8747V1.64802C15.9983 1.4134 15.9043 1.18888 15.7384 1.02298C15.5725 0.857073 15.348 0.763097 15.1133 0.761353Z" fill="#828282"/>
</svg>
