<svg width="17" height="17" viewBox="0 0 17 17" fill="none" xmlns="http://www.w3.org/2000/svg">
<path d="M4.19833 8.76135C4.19833 11.405 6.34233 13.5498 8.98633 13.5498C11.6299 13.5498 13.7747 11.4054 13.7747 8.76135C13.7747 8.34535 13.7863 7.96135 13.7863 7.56135H14.9863V13.5614C14.9863 14.3534 14.5783 14.7614 13.7863 14.7614H3.78633C2.99433 14.7614 2.58633 14.3534 2.58633 13.5614V7.56135H4.18633C4.18633 7.96135 4.19833 8.34535 4.19833 8.76135ZM0.986328 2.83335V14.6894C0.986328 16.037 1.71033 16.7614 3.05833 16.7614H14.9143C16.2619 16.7614 16.9863 16.037 16.9863 14.6894V2.83335C16.9863 1.48575 16.2619 0.761353 14.9143 0.761353H3.05833C1.71033 0.761353 0.986328 1.48575 0.986328 2.83335ZM5.81033 8.76135C5.81033 7.00535 7.23033 5.58575 8.98633 5.58575C9.40346 5.58538 9.81657 5.66727 10.202 5.82673C10.5875 5.98619 10.9377 6.22009 11.2326 6.51504C11.5276 6.81 11.7615 7.16022 11.921 7.54567C12.0804 7.93112 12.1623 8.34422 12.1619 8.76135C12.1623 9.1785 12.0805 9.59163 11.9211 9.9771C11.7616 10.3626 11.5277 10.7128 11.2328 11.0078C10.9378 11.3027 10.5875 11.5366 10.2021 11.6961C9.8166 11.8555 9.40347 11.9374 8.98633 11.937C8.56917 11.9374 8.15601 11.8555 7.77052 11.6961C7.38503 11.5367 7.03476 11.3028 6.73976 11.0078C6.44476 10.7128 6.21083 10.3626 6.05134 9.97713C5.89186 9.59166 5.80996 9.17852 5.81033 8.76135ZM12.5863 3.36135C12.5863 3.02935 12.8543 2.76135 13.1863 2.76135H14.3863C14.7183 2.76135 14.9863 3.02935 14.9863 3.36135V4.56135C14.9863 4.89335 14.7183 5.16135 14.3863 5.16135H13.1863C12.8543 5.16135 12.5863 4.89335 12.5863 4.56135V3.36135Z" fill="#828282"/>
</svg>
